<svg xmlns="http://www.w3.org/2000/svg" viewBox="0 0 691 250" fill="none">
  <defs>
    <linearGradient id="g1" x1="49.933" y1="85.597" x2="138.212" y2="202.748" gradientUnits="userSpaceOnUse">
      <stop offset="0.353" stop-color="#58b1fc"/>
      <stop offset="0.884" stop-color="#5a49da"/>
    </linearGradient>
    <linearGradient id="g2" x1="53.923" y1="81.941" x2="215.051" y2="81.941" gradientUnits="userSpaceOnUse">
      <stop offset="0" stop-color="#175ad7"/>
      <stop offset="0.812" stop-color="#4dd6f3"/>
    </linearGradient>
    <linearGradient id="g3" x1="114.089" y1="205.208" x2="205.938" y2="91.785" gradientUnits="userSpaceOnUse">
      <stop offset="0.076" stop-color="#ee56e3"/>
      <stop offset="0.933" stop-color="#5a49da"/>
    </linearGradient>
  </defs>

  <!-- Abstract emblem -->
  <path fill="url(#g1)" d="m 59.699219,65.740234 c -10.273334,10.46 -18.969844,22.082474 -26.089844,34.869146 -5.626667,10.09999 -9.445651,20.81395 -11.458984,32.14062 -3.186667,17.13333 -1.016901,33.37404 6.509765,48.7207 3.853334,7.54667 8.790547,14.1517 14.810547,19.81836 1.66,1.56 5.303021,4.45808 10.929688,8.69141 6.08,3.90667 12.52651,6.91596 19.339843,9.0293 l 13.298828,3.5 c 3.36,-0.26 6.961172,0.31 9.951172,0 10.489996,-1.06 18.938826,-1.97 28.798826,-5.75 8.76,-3.35 17.06133,-6.71985 23.86133,-12.08985 6.54,-4.09333 12.40008,-8.94721 17.58008,-14.56054 0.19333,-0.21334 0.23557,-0.45209 0.12891,-0.71876 -0.02,-0.04 -0.12193,-0.0605 -0.3086,-0.0605 -11.32,6.98666 -23.5669,9.11729 -36.74023,6.39062 -3.5,-0.72666 -6.90737,-1.56 -10.22071,-2.5 -7.30666,-2.44666 -14.18224,-5.82109 -20.628902,-10.12109 -9.860001,-6.34 -18.308464,-14.20628 -25.341797,-23.59961 -4,-5.92 -7.820079,-11.43023 -9.330079,-18.49023 -0.346666,0.65333 -0.698593,0.59984 -1.058593,-0.16016 -3.56,-7.66667 -6.277058,-15.62247 -8.150391,-23.86914 -1.213333,-6.98667 -1.760625,-14.5638 -1.640625,-22.73047 0.113333,-8.113333 1.464115,-15.684271 4.050781,-22.710938 z"/>
  <path fill="url(#g2)" d="m 141.91016,22.419922 c -12.29334,0.373333 -23.22745,2.783802 -32.80078,7.230469 -7.14667,3 -13.84938,6.679062 -20.10938,11.039062 -6.32,4.166667 -12.249062,8.800391 -17.789062,13.900391 l -11.511719,11.15039 -1.708985,5.798828 C 55.403568,78.565729 54.052786,86.136667 53.939453,94.25 c -0.12,8.16667 0.427292,15.7438 1.640625,22.73047 1.873333,8.24667 4.590391,16.20247 8.150391,23.86914 0.36,0.76 0.711927,0.81349 1.058593,0.16016 -3.119999,-15.4 2.141485,-29.39969 12.271485,-40.92969 3.54,-4.240002 7.340391,-7.957059 11.400391,-11.150392 6.56,-5.346667 13.489062,-9.73349 20.789062,-13.160157 7.56667,-4.046666 15.48023,-6.790469 23.74023,-8.230469 6.21334,-1.379999 12.33271,-1.568359 18.35938,-0.568359 9.45333,0.773333 18.80102,2.788828 28.04101,6.048828 7.54,3.233334 14.71287,7.277526 21.51954,12.13086 2.40666,1.713333 4.85937,3.912942 7.35937,6.599609 2.20667,2.366667 4.46792,4.783333 6.78125,7.25 -0.33333,-2.653333 -1.04109,-5.140937 -2.12109,-7.460938 a 4.76,5.1 24.4 0 1 -0.35938,-1.068359 c -1.82,-8.62 -4.29961,-14.530937 -7.84961,-24.710937 -1.64666,-4.706667 -3.4676,-8.519453 -5.46093,-11.439454 -9.86,-14.47 -21.31922,-24.75039 -38.44922,-29.40039 -5.56667,-1.513333 -11.86706,-2.346667 -18.90039,-2.5 z"/>
  <path fill="url(#g3)" d="m 151.34961,66.970703 c 6.82,1.84 12.37659,4.748516 16.66992,8.728516 6.41333,5.946666 11.27341,13.160625 14.58008,21.640625 0.94,2.42 1.84737,4.780076 2.7207,7.080076 2.38,7.72 3.77302,15.44016 4.17969,23.16016 0.84,14.7 -0.80039,28.31992 -6.90039,41.66992 -3.60667,7.88 -8.78883,14.57341 -15.54883,20.08008 0.18667,0 0.28859,0.0205 0.3086,0.0605 0.10666,0.26667 0.0644,0.50542 -0.12891,0.71876 -5.18,5.61333 -11.04008,10.46721 -17.58008,14.56054 -6.8,5.37 -15.10133,8.73985 -23.86133,12.08985 -9.86,3.78 -18.30883,4.69 -28.798826,5.75 -2.99,0.31 -6.591172,-0.26 -9.951172,0 3.233334,1.12 6.548073,1.96263 9.941407,2.52929 10.550001,1.75 18.500391,3.49078 28.400391,3.80078 0.96,0.0267 4.36542,0.26427 10.21875,0.71094 14.08,1.08 29.68992,0.43992 43.41992,-3.33008 10.71333,-2.74666 19.78427,-6.8269 27.21094,-12.24023 4.12,-3 8.65914,-7.5031 13.61914,-13.50977 12.06,-15.98 15.72086,-35.72117 11.38086,-55.20117 -1.46667,-8.66667 -3.68682,-16.9589 -6.66016,-24.87891 L 215.05078,99 c -2.31333,-2.466667 -4.57458,-4.883333 -6.78125,-7.25 -2.5,-2.686667 -4.95271,-4.886276 -7.35937,-6.599609 -6.80667,-4.853334 -13.97954,-8.897526 -21.51954,-12.13086 -9.23999,-3.26 -18.58768,-5.275495 -28.04101,-6.048828 z"/>

  <!-- BLUEFATE wordmark -->
  <g fill="#e8eef4">
    <path d="m 331.44,110.28 a 0.45,0.45 0 0 0 0.05,0.7 c 11.76,8.23 8.8,25.37 -3.99,30.7 q -3.44,1.43 -11.64,1.2 -3.99,-0.12 -19.77,0.17 a 0.84,0.84 0 0 1 -0.86,-0.84 V 82.18 a 0.63,0.62 -90 0 1 0.62,-0.63 h 26.17 a 1.8,1.57 -34.9 0 1 0.37,0.04 q 13.2,2.92 13.84,16.41 0.36,7.44 -4.79,12.28 z m -24.85,-17.02 0.04,12.18 a 0.48,0.48 0 0 0 0.48,0.48 l 11.32,-0.04 a 6.5,6.22 -0.2 0 0 6.48,-6.24 v -0.7 a 6.5,6.22 -0.2 0 0 -6.52,-6.2 l -11.32,0.04 a 0.48,0.48 0 0 0 -0.48,0.48 z m 0,24.54 0.02,13.2 a 0.48,0.48 0 0 0 0.48,0.48 l 12.71,-0.03 a 7.25,6.9 -0.1 0 0 7.24,-6.91 v -0.36 a 7.25,6.9 -0.1 0 0 -7.26,-6.89 l -12.71,0.03 a 0.48,0.48 0 0 0 -0.48,0.48 z"/>
    <path d="m 348.66,81.56 h 10.16 a 0.64,0.64 0 0 1 0.64,0.64 v 48.72 a 0.64,0.64 0 0 0 0.64,0.64 h 21.91 a 0.64,0.64 0 0 1 0.64,0.64 v 10.07 a 0.64,0.64 0 0 1 -0.64,0.64 h -33.35 a 0.64,0.64 0 0 1 -0.64,-0.64 V 82.2 a 0.64,0.64 0 0 1 0.64,-0.64 z"/>
    <path d="m 413.19,131.78 c 7.46,0.01 11.93,-5.71 11.91,-13.02 q -0.08,-28.39 0,-36.46 a 0.78,0.77 0.4 0 1 0.78,-0.76 h 10.03 a 0.63,0.63 0 0 1 0.63,0.63 q 0.1,24.95 -0.03,37.53 c -0.15,13.82 -9.58,23.73 -23.33,23.72 -13.74,0 -23.17,-9.92 -23.31,-23.74 q -0.12,-12.58 0,-37.52 a 0.63,0.63 0 0 1 0.63,-0.63 h 10.03 a 0.78,0.77 -0.3 0 1 0.78,0.76 q 0.07,8.07 -0.03,36.46 c -0.02,7.31 4.44,13.03 11.91,13.03 z"/>
    <path d="m 461.28,106.28 h 18.84 a 0.54,0.54 0 0 1 0.54,0.54 v 10.21 a 0.54,0.54 0 0 1 -0.54,0.54 h -18.88 a 0.54,0.54 0 0 0 -0.54,0.54 v 13.07 a 0.54,0.54 0 0 0 0.54,0.54 h 24.62 a 0.54,0.54 0 0 1 0.54,0.54 v 10.12 a 0.54,0.54 0 0 1 -0.54,0.54 h -35.97 a 0.54,0.54 0 0 1 -0.54,-0.54 V 82.09 a 0.54,0.54 0 0 1 0.54,-0.54 h 35.79 a 0.54,0.54 0 0 1 0.54,0.54 V 92.3 a 0.54,0.54 0 0 1 -0.54,0.54 h -24.4 a 0.54,0.54 0 0 0 -0.54,0.54 v 12.36 a 0.54,0.54 0 0 0 0.54,0.54 z"/>
    <path d="m 509.38,118.6 v 23.72 a 0.57,0.57 0 0 1 -0.57,0.57 h -10.43 a 0.57,0.57 0 0 1 -0.57,-0.57 v -60.2 a 0.57,0.57 0 0 1 0.57,-0.57 h 35.43 a 0.57,0.57 0 0 1 0.57,0.57 v 10.15 a 0.57,0.57 0 0 1 -0.57,0.57 h -23.86 a 0.57,0.57 0 0 0 -0.57,0.57 v 12.72 a 0.57,0.57 0 0 0 0.57,0.57 h 18.36 a 0.57,0.57 0 0 1 0.57,0.57 v 10.19 a 0.57,0.57 0 0 1 -0.57,0.57 h -18.36 a 0.57,0.57 0 0 0 -0.57,0.57 z"/>
    <path d="m 559.33,81.49 q 0.62,0 1.17,0.13 a 1.11,1.1 85 0 1 0.77,0.65 l 25.78,59.87 a 0.56,0.56 0 0 1 -0.51,0.78 h -10.27 a 1.03,1.02 78.1 0 1 -0.94,-0.62 l -15.61,-36.66 a 0.29,0.19 21.5 0 0 -0.07,-0.09 q -0.08,-0.08 -0.29,-0.07 -0.22,0 -0.3,0.07 a 0.29,0.19 -21.6 0 0 -0.07,0.09 l -15.54,36.69 a 1.03,1.02 -78.2 0 1 -0.94,0.62 l -10.27,0.02 a 0.56,0.56 0 0 1 -0.51,-0.78 L 557.4,82.27 a 1.11,1.1 -85.1 0 1 0.76,-0.65 q 0.56,-0.13 1.17,-0.13 z"/>
    <path d="m 603.69,81.54 q 18.91,-0.04 20.34,0.04 a 0.43,0.43 0 0 1 0.41,0.43 V 92.2 a 0.55,0.54 -90 0 1 -0.54,0.55 h -13.82 a 0.62,0.62 0 0 0 -0.62,0.62 v 48.81 a 0.69,0.68 89.7 0 1 -0.67,0.69 q -0.56,0.01 -4.97,0.02 -4.41,0.01 -4.96,0 a 0.69,0.68 -89.9 0 1 -0.68,-0.69 l -0.21,-48.8 a 0.62,0.62 0 0 0 -0.63,-0.62 l -13.82,0.06 a 0.55,0.54 89.7 0 1 -0.54,-0.55 L 582.94,82.1 a 0.43,0.43 0 0 1 0.4,-0.43 q 1.43,-0.09 20.35,-0.13 z"/>
    <path d="m 644.41,106.25 h 19.02 a 0.52,0.52 0 0 1 0.52,0.52 v 10.24 a 0.52,0.52 0 0 1 -0.52,0.52 h -19.01 a 0.52,0.52 0 0 0 -0.52,0.52 v 13.12 a 0.52,0.52 0 0 0 0.52,0.52 h 24.52 a 0.52,0.52 0 0 1 0.52,0.52 v 10.17 a 0.52,0.52 0 0 1 -0.52,0.52 h -35.85 a 0.52,0.52 0 0 1 -0.52,-0.52 V 82.09 a 0.52,0.52 0 0 1 0.52,-0.52 h 34.9 a 0.52,0.52 0 0 1 0.52,0.52 v 10.19 a 0.52,0.52 0 0 1 -0.52,0.52 h -23.58 a 0.52,0.52 0 0 0 -0.52,0.52 v 12.41 a 0.52,0.52 0 0 0 0.52,0.52 z"/>
  </g>
  <circle cx="559.29" cy="136.28" r="6.86" fill="#d74bec"/>

  <!-- LABS wordmark -->
  <g fill="#e8eef4">
    <path d="m 402.8,167.75 h 1.7 a 0.58,0.58 0 0 1 0.58,0.58 v 21.1 a 0.58,0.58 0 0 0 0.58,0.58 h 11.17 a 0.58,0.58 0 0 1 0.58,0.58 v 1.56 a 0.58,0.58 0 0 1 -0.58,0.58 H 402.8 a 0.58,0.58 0 0 1 -0.58,-0.58 v -23.82 a 0.58,0.58 0 0 1 0.58,-0.58 z"/>
    <path d="m 456.95,167.62 q 1.05,0 1.68,1.5 4.81,11.55 9.82,22.63 a 0.79,0.79 0 0 1 -0.72,1.11 h -1.06 a 1.65,1.64 78.3 0 1 -1.51,-1 l -2.29,-5.31 a 0.89,0.88 -9.3 0 0 -0.77,-0.54 q -0.84,-0.05 -5.1,-0.04 -4.26,0.01 -5.1,0.06 a 0.89,0.88 9 0 0 -0.77,0.55 l -2.26,5.32 a 1.65,1.64 -78.6 0 1 -1.51,1.01 l -1.06,0.01 a 0.79,0.79 0 0 1 -0.72,-1.11 q 4.95,-11.11 9.7,-22.68 0.62,-1.51 1.67,-1.51 z m 0.15,15.81 q 2.17,-0.02 4.24,-0.03 a 0.46,0.46 0 0 0 0.4,-0.67 q -2.52,-4.63 -4.18,-9.24 -0.22,-0.62 -0.56,-0.61 -0.34,0 -0.55,0.62 -1.58,4.64 -4.01,9.31 a 0.46,0.46 0 0 0 0.41,0.67 q 2.07,-0.03 4.25,-0.05 z"/>
    <path d="m 513.12,179.92 q 0.16,0.18 0.98,0.68 c 2.07,1.27 2.69,4.12 2.32,6.42 -0.68,4.21 -4.3,5.71 -8.49,5.68 q -1.76,-0.01 -8.88,0.07 a 0.66,0.66 0 0 1 -0.67,-0.66 v -23.68 a 0.58,0.57 89.5 0 1 0.56,-0.58 q 8.18,-0.22 12.27,0.68 2.13,0.48 3.26,2.77 2.23,4.54 -1.29,7.69 a 0.67,0.66 -41.6 0 0 -0.06,0.93 z m -11.77,-9.1 -0.02,7.08 a 0.51,0.51 0 0 0 0.51,0.51 l 5.79,0.02 a 4.68,3.92 0.2 0 0 4.69,-3.9 v -0.26 a 4.68,3.92 0.2 0 0 -4.67,-3.94 l -5.79,-0.02 a 0.51,0.51 0 0 0 -0.51,0.51 z m 0.06,10.64 -0.08,8.3 a 0.36,0.36 0 0 0 0.36,0.36 l 6.35,0.06 a 5.47,4.37 0.5 0 0 5.51,-4.33 v -0.28 a 5.47,4.37 0.5 0 0 -5.43,-4.41 l -6.35,-0.06 a 0.36,0.36 0 0 0 -0.36,0.36 z"/>
    <path d="m 561.82,169.67 a 1.02,1.01 -53.4 0 1 0.22,1.53 l -0.51,0.57 a 1.06,1.05 -49.2 0 1 -1.46,0.11 c -2.62,-2.17 -9.5,-2.75 -10.05,2.24 -0.67,5.91 13.37,2.64 13.27,12.14 -0.04,3.82 -2.87,6.21 -6.73,6.66 q -5.39,0.63 -9.75,-2.4 a 1.17,1.16 -56.2 0 1 -0.31,-1.59 l 0.45,-0.7 a 0.92,0.91 35.4 0 1 1.33,-0.22 q 3.85,2.98 8.41,1.99 c 3.62,-0.78 5.12,-5.03 1.25,-7.23 -2.91,-1.66 -10.1,-2.09 -10.73,-7.53 q -0.42,-3.62 1.81,-5.66 c 3.45,-3.15 9.16,-2.19 12.8,0.09 z"/>
  </g>

  <!-- LABS horizontal rules -->
  <rect fill="#e8eef4" x="295.32" y="178.89" width="82.58" height="2.73" rx="0.65"/>
  <rect fill="#e8eef4" x="586.89" y="178.87" width="82.54" height="2.73" rx="0.65"/>
</svg>
